<svg width="544" height="544" viewBox="0 0 544 544" fill="none" xmlns="http://www.w3.org/2000/svg">
<rect width="544" height="544" rx="200" fill="#D7EBF4"/>
<path d="M230.683 110C241.93 110 252.37 113.495 260.964 119.436V190.75H235.886C233.175 183.046 227.824 176.55 220.782 172.412C213.741 168.275 205.462 166.763 197.412 168.145C189.362 169.526 182.061 173.712 176.802 179.961C171.543 186.21 168.665 194.118 168.679 202.286C168.697 210.435 171.591 218.317 176.851 224.542C182.111 230.768 189.399 234.937 197.431 236.315C205.463 237.694 213.725 236.194 220.759 232.079C227.794 227.964 233.151 221.499 235.886 213.821H260.964V421.453C250.994 428.967 238.842 433.022 226.357 433H222.781C210.49 432.999 198.52 429.071 188.618 421.789C178.715 414.508 171.398 404.253 167.733 392.521L165.783 386.246C150.603 384.153 136.694 376.638 126.624 365.088C116.554 353.538 111.004 338.734 111 323.411V317.643C110.98 300.605 117.277 284.165 128.673 271.5H174.446C179.036 271.5 183.437 273.323 186.682 276.568C189.927 279.813 191.75 284.214 191.75 288.804V296.579C184.046 299.29 177.55 304.64 173.412 311.682C169.275 318.724 167.763 327.003 169.145 335.052C170.526 343.102 174.712 350.403 180.961 355.662C187.21 360.921 195.118 363.799 203.286 363.786C211.435 363.767 219.317 360.873 225.542 355.613C231.768 350.353 235.937 343.065 237.315 335.033C238.694 327.001 237.194 318.74 233.079 311.705C228.964 304.67 222.499 299.314 214.821 296.579V288.804C214.821 278.095 210.568 267.826 202.996 260.254C195.424 252.682 185.155 248.429 174.446 248.429H134.118C126.591 238.462 122.524 226.311 122.536 213.821C122.538 198.939 128.292 184.633 138.597 173.895C148.901 163.157 162.957 156.817 177.826 156.201C179.555 143.407 185.863 131.675 195.583 123.179C205.303 114.684 217.774 110.001 230.683 110ZM314.317 110C327.226 110.001 339.697 114.684 349.417 123.179C359.137 131.675 365.446 143.407 367.174 156.201C378.882 156.692 390.164 160.738 399.516 167.8C408.868 174.862 415.846 184.606 419.523 195.733C423.2 206.861 423.399 218.844 420.096 230.088C416.792 241.331 410.142 251.302 401.031 258.672C411.107 264.866 419.428 273.538 425.199 283.862C430.971 294.185 434.001 305.815 434 317.643V323.411C433.996 338.734 428.446 353.538 418.376 365.088C408.306 376.638 394.397 384.153 379.217 386.246L377.267 392.521C373.602 404.253 366.285 414.508 356.382 421.789C346.48 429.071 334.51 432.999 322.219 433H318.643C306.158 433.022 294.006 428.967 284.036 421.453V340.714H312.875C323.583 340.714 333.853 336.46 341.424 328.889C348.996 321.317 353.25 311.047 353.25 300.339V292.553C360.946 289.836 367.433 284.484 371.564 277.446C375.695 270.407 377.203 262.133 375.822 254.09C374.442 246.046 370.26 238.749 364.018 233.491C357.776 228.233 349.876 225.352 341.714 225.357C333.553 225.352 325.652 228.233 319.41 233.491C313.168 238.749 308.987 246.046 307.606 254.09C306.225 262.133 307.734 270.407 311.865 277.446C315.995 284.484 322.483 289.836 330.179 292.553V300.339C330.179 304.928 328.356 309.33 325.11 312.575C321.865 315.82 317.464 317.643 312.875 317.643H284.036V119.436C292.931 113.277 303.497 109.985 314.317 110ZM203.286 317.643C206.345 317.643 209.279 318.858 211.443 321.022C213.606 323.185 214.821 326.119 214.821 329.179C214.821 332.238 213.606 335.172 211.443 337.336C209.279 339.499 206.345 340.714 203.286 340.714C200.226 340.714 197.292 339.499 195.129 337.336C192.965 335.172 191.75 332.238 191.75 329.179C191.75 326.119 192.965 323.185 195.129 321.022C197.292 318.858 200.226 317.643 203.286 317.643ZM341.714 248.429C344.774 248.429 347.708 249.644 349.871 251.807C352.035 253.971 353.25 256.905 353.25 259.964C353.25 263.024 352.035 265.958 349.871 268.121C347.708 270.285 344.774 271.5 341.714 271.5C338.655 271.5 335.721 270.285 333.557 268.121C331.394 265.958 330.179 263.024 330.179 259.964C330.179 256.905 331.394 253.971 333.557 251.807C335.721 249.644 338.655 248.429 341.714 248.429ZM203.286 190.75C206.345 190.75 209.279 191.965 211.443 194.129C213.606 196.292 214.821 199.226 214.821 202.286C214.821 205.345 213.606 208.279 211.443 210.443C209.279 212.606 206.345 213.821 203.286 213.821C200.226 213.821 197.292 212.606 195.129 210.443C192.965 208.279 191.75 205.345 191.75 202.286C191.75 199.226 192.965 196.292 195.129 194.129C197.292 191.965 200.226 190.75 203.286 190.75Z" fill="#163252"/>
</svg>
